<svg id="レイヤー_1" data-name="レイヤー 1" xmlns="http://www.w3.org/2000/svg" viewBox="0 0 401 512"><defs><style>.cls-1{fill:#333;}.cls-2{fill:#fff;}</style></defs><path class="cls-1" d="M159.43,454.43a29.29,29.29,0,0,0,6.11,17.65L185,497.77c6.75,8.93,18.14,14.3,30.35,14.31h70.3c12.2,0,23.59-5.36,30.35-14.28l19.47-25.72a29.3,29.3,0,0,0,6.16-17.65V416.08H159.36ZM50,176.08c-.07,42.61,17.58,83.78,49.62,115.78,18.82,18.85,48.26,58.22,59.48,91.45a5.26,5.26,0,0,0,.12.78H341.77a5.47,5.47,0,0,1,.12-.78c11.22-33.22,40.66-72.6,59.48-91.45,72.9-73.09,64.51-184.22-18.74-248.22C345.9,15.41,298.69-.08,249.87.08,133.66.39,50,83.08,50,176.08Z" transform="translate(-50 -0.08)"/><polygon class="cls-2" points="151.37 293.38 151.37 106.47 315.63 199.93 151.37 293.38 151.37 293.38"/></svg>